<svg width="623" height="200" viewBox="0 0 623 200" fill="none" xmlns="http://www.w3.org/2000/svg">
<path fill-rule="evenodd" clip-rule="evenodd" d="M86.827 0L0 149.105L86.827 199.258L173.728 149.105L86.827 0ZM72.256 85.716C81.521 76.505 86.533 63.11 86.882 46.661C87.574 79.1 106.394 99.654 140.173 99.654C123.525 99.654 110.509 104.65 101.507 113.602C92.242 122.803 87.23 136.198 86.882 152.652C86.194 120.212 67.374 99.654 33.59 99.654C50.238 99.654 63.254 94.663 72.256 85.716Z" fill="white"/>
<path d="M351.994 162.066V39.647H369.235V162.066H351.994ZM495.764 162.066H385.983V146.499L467.091 60.634C469.91 57.66 474.13 54.865 477.826 53.291L477.651 52.942C474.13 54.516 469.029 55.737 464.984 55.737H387.388V39.647H494.175V55.214L413.774 141.079C411.134 144.053 406.74 146.852 403.044 148.422L403.219 148.77C406.915 147.201 411.836 145.976 415.886 145.976H495.759L495.764 162.066ZM523.257 162.066H504.606L551.053 39.647H576.209L622.656 162.066H604.185L592.748 132.86H534.34L523.257 162.066ZM563.542 55.039L539.795 117.646C554.57 117.646 564.777 117.472 572.339 118.344C579.731 119.041 587.119 122.194 592.22 131.111L563.542 55.039Z" fill="white"/>
<path d="M333.94 144.566V99.627H281.171V116.763H312.305C312.794 116.777 313.28 116.692 313.733 116.512C314.187 116.332 314.6 116.062 314.946 115.717C315.643 115.019 316.176 114.083 316.525 112.917C317.01 111.687 317.307 110.39 317.406 109.071C317.641 107.672 317.755 106.332 317.755 105.046V145.806H283.22C277.771 145.806 272.376 144.92 267.046 143.151C261.684 141.551 256.718 138.842 252.47 135.201C248.201 131.549 244.764 126.837 242.158 121.063C239.558 115.31 238.253 108.386 238.243 100.291C238.243 92.634 239.428 85.9189 241.8 80.1459C244.29 74.2579 247.548 69.366 251.578 65.48C255.516 61.533 260.241 58.4609 265.447 56.4639C270.671 54.4809 276.212 53.4639 281.801 53.4599C286.283 53.4989 290.728 54.2759 294.957 55.7619C299.453 57.1709 303.71 59.2549 307.58 61.9439C311.658 64.7009 315.261 68.1049 318.245 72.0209L318.394 72.2199L333.937 63.3039C330.249 57.2889 325.325 52.1269 319.49 48.1599C314.394 44.5139 308.646 41.7989 302.245 40.0299C295.577 38.2269 288.707 37.2779 281.801 37.2059C273.148 37.0859 265.088 38.3269 257.626 40.9169C250.359 43.2699 243.73 47.26 238.248 52.579C232.793 57.764 228.524 64.3599 225.446 72.3699C222.367 80.2449 220.833 89.5259 220.823 100.211C220.823 110.697 222.482 119.828 225.799 127.604C229.117 135.38 233.68 141.796 239.488 146.862C245.182 152.048 251.872 155.879 259.578 158.35C267.285 160.825 275.459 162.061 284.112 162.061H334.066L333.94 144.566Z" fill="white"/>
</svg>
