<svg width="564" height="230" viewBox="0 0 564 230" fill="none" xmlns="http://www.w3.org/2000/svg">
<path d="M277.604 47.7064C304.9 47.7064 326.736 62.9919 332.195 88.4676H314.18C309.813 73.7281 297.803 63.3558 276.694 63.3558C253.402 63.3558 235.205 81.5528 235.205 115.763C235.205 149.245 252.492 168.716 276.694 168.716C294.163 168.716 315.636 161.437 315.636 134.142V130.685H280.698V114.671H333.105V182H318.547L317.638 165.441C309.085 179.088 293.618 184.366 275.966 184.366C238.117 184.366 216.28 155.796 216.28 115.763C216.28 75.0019 240.482 47.7064 277.604 47.7064ZM354.674 84.1003H371.233V182H354.674V84.1003ZM354.674 50.072H371.233V70.0887H354.674V50.072ZM384.945 182V167.624L441.538 98.4759H388.584V84.1003H460.826V98.4759L404.416 167.624H461.918V182H384.945ZM536.234 141.057V134.87C506.209 137.781 487.102 142.331 487.102 155.796C487.102 165.077 494.199 171.264 506.027 171.264C521.495 171.264 536.234 164.167 536.234 141.057ZM502.388 184.366C484.009 184.366 468.724 174.175 468.724 156.16C468.724 133.05 494.927 126.135 534.96 121.768V119.402C534.96 101.387 525.134 95.5644 512.76 95.5644C498.93 95.5644 491.106 102.843 490.378 115.035H473.273C474.729 93.9267 493.653 82.0987 512.578 82.0987C539.692 82.0987 551.702 94.8365 551.52 122.496L551.338 145.06C551.156 161.619 551.884 172.72 553.885 182H537.144C536.598 178.361 536.052 174.357 535.87 168.534C529.865 178.725 519.857 184.366 502.388 184.366Z" fill="white"/>
<path fill-rule="evenodd" clip-rule="evenodd" d="M6.35705e-07 87.9597C0.00158432 39.3819 39.3817 0.000701147 87.9597 0C136.538 9.96904e-07 175.918 39.3815 175.919 87.9597V141.269C175.919 189.848 136.539 229.229 87.9597 229.229C39.3812 229.228 0.000704034 189.847 0 141.269L6.35705e-07 87.9597ZM114.28 20.2331C108.337 17.9231 102.693 23.1341 103.909 29.3935C107.448 47.6195 113.948 66.7649 122.565 83.0598C128.555 94.3865 135.418 104.046 142.74 111.018C145.027 113.195 147.318 115.072 149.607 116.651C154.704 120.166 160.622 115.856 160.622 109.664V87.9597C160.621 57.1141 141.398 30.7732 114.28 20.2331ZM104.724 199.666C102.928 205.874 108.65 211.242 114.66 208.866C134.107 201.177 149.437 185.338 156.448 165.558C158.592 159.51 153.111 153.988 146.999 155.942C136.995 159.14 128.242 164.141 121.169 171.094C113.994 178.148 108.242 187.5 104.724 199.666ZM20.0553 137.249C20.0553 137.69 20.3735 138.067 20.8077 138.144C37.8545 141.203 53.5243 148.173 65.7457 160.189C76.6619 170.922 84.3801 185.265 88.0867 203.377C91.7932 185.264 99.5256 170.923 110.443 160.189C122.664 148.174 138.334 141.202 155.381 138.144C155.815 138.067 156.133 137.69 156.133 137.249C156.133 136.843 155.863 136.488 155.475 136.372C146.897 133.806 139.082 128.66 132.186 122.095C123.322 113.655 115.548 102.51 109.046 90.2155C99.0381 71.2914 91.6952 48.9354 88.0941 27.8758C84.4932 48.9347 77.1496 71.2918 67.1425 90.2155C60.641 102.509 52.8659 113.655 44.0023 122.095C37.1071 128.66 29.2904 133.806 20.7137 136.372C20.3252 136.488 20.0553 136.843 20.0553 137.249ZM15.2973 109.852C15.2973 116.007 21.1554 120.324 26.2525 116.874C28.6503 115.251 31.0523 113.298 33.448 111.018C40.7694 104.046 47.6334 94.3854 53.6228 83.0598C62.2543 66.7369 68.7547 47.552 72.2863 29.2974C73.4945 23.0524 67.8764 17.8456 61.9375 20.1236C34.6628 30.5856 15.2986 57.002 15.2973 87.9597V109.852ZM28.8689 155.841C22.7622 153.917 17.3008 159.432 19.4325 165.469C26.4675 185.393 41.9441 201.327 61.5683 208.98C67.5743 211.322 73.2702 205.96 71.4877 199.764C67.9734 187.551 62.2135 178.167 55.0196 171.094C47.8714 164.067 39.0062 159.034 28.8689 155.841Z" fill="white"/>
</svg>
