<svg width="570" height="400" viewBox="0 0 570 400" fill="none" xmlns="http://www.w3.org/2000/svg">
<rect width="570" height="400" rx="24" fill="url(#paint0_linear_2005_983)"/>
<path d="M214 15C214 11.6863 216.686 9 220 9H262.429V56.5H214V15Z" fill="#AEE546" fill-opacity="0.39"/>
<path d="M310.857 9H359.286V56.5H310.857V9Z" fill="#AEE546" fill-opacity="0.39"/>
<path d="M407.714 9H456.143V56.5H407.714V9Z" fill="#AEE546" fill-opacity="0.39"/>
<path d="M504.571 9H553V56.5H504.571V9Z" fill="#AEE546" fill-opacity="0.39"/>
<path d="M504.571 56.5H456.143V104H504.571V56.5Z" fill="#AEE546" fill-opacity="0.39"/>
<path d="M407.714 56.5H359.286V104H407.714V56.5Z" fill="#AEE546" fill-opacity="0.39"/>
<path d="M310.857 56.5H262.429V104H310.857V56.5Z" fill="#AEE546" fill-opacity="0.39"/>
<path d="M214 104H262.429V151.5H214V104Z" fill="#AEE546" fill-opacity="0.39"/>
<path d="M310.857 104H359.286V151.5H310.857V104Z" fill="#AEE546" fill-opacity="0.39"/>
<path d="M407.714 104H456.143V151.5H407.714V104Z" fill="#AEE546" fill-opacity="0.39"/>
<path d="M504.571 104H553V151.5H504.571V104Z" fill="#AEE546" fill-opacity="0.39"/>
<path d="M504.571 151.5H456.143V199H504.571V151.5Z" fill="#AEE546" fill-opacity="0.39"/>
<path d="M407.714 151.5H359.286V199H407.714V151.5Z" fill="#AEE546" fill-opacity="0.39"/>
<path d="M310.857 151.5H262.429V199H310.857V151.5Z" fill="#AEE546" fill-opacity="0.39"/>
<path d="M214 199H262.429V246.5H214V199Z" fill="#AEE546" fill-opacity="0.39"/>
<path d="M310.857 199H359.286V246.5H310.857V199Z" fill="#AEE546" fill-opacity="0.39"/>
<path d="M407.714 199H456.143V246.5H407.714V199Z" fill="#AEE546" fill-opacity="0.39"/>
<path d="M504.571 199H553V246.5H504.571V199Z" fill="#AEE546" fill-opacity="0.39"/>
<path d="M504.571 246.5H456.143V294H504.571V246.5Z" fill="#AEE546" fill-opacity="0.39"/>
<path d="M407.714 246.5H359.286V294H407.714V246.5Z" fill="#AEE546" fill-opacity="0.39"/>
<path d="M310.857 246.5H262.429V294H310.857V246.5Z" fill="#AEE546" fill-opacity="0.39"/>
<path d="M214 294H262.429V341.5H214V294Z" fill="#AEE546" fill-opacity="0.39"/>
<path d="M310.857 294H359.286V341.5H310.857V294Z" fill="#AEE546" fill-opacity="0.39"/>
<path d="M407.714 294H456.143V341.5H407.714V294Z" fill="#AEE546" fill-opacity="0.39"/>
<path d="M504.571 294H553V341.5H504.571V294Z" fill="#AEE546" fill-opacity="0.39"/>
<path d="M504.571 341.5H456.143V389H504.571V341.5Z" fill="#AEE546" fill-opacity="0.39"/>
<path d="M407.714 341.5H359.286V389H407.714V341.5Z" fill="#AEE546" fill-opacity="0.39"/>
<path d="M310.857 341.5H262.429V389H310.857V341.5Z" fill="#AEE546" fill-opacity="0.39"/>
<path fill-rule="evenodd" clip-rule="evenodd" d="M107.481 81L64 155.83L107.481 181L151 155.83L107.481 81ZM100.185 124.018C104.824 119.395 107.334 112.673 107.509 104.417C107.856 120.697 117.28 131.013 134.196 131.013C125.859 131.013 119.341 133.52 114.833 138.013C110.193 142.63 107.683 149.353 107.509 157.61C107.164 141.33 97.7397 131.013 80.8213 131.013C89.1583 131.013 95.6765 128.508 100.185 124.018Z" fill="#C0EF68"/>
<path d="M65.92 257V212.2H72.192V257H65.92ZM76.045 257V225H82.317V231.592C82.317 232.872 82.061 234.6 81.805 235.88L81.933 235.944C82.189 234.664 82.573 232.936 83.213 231.784C85.837 226.728 90.445 224.488 94.733 224.488C102.797 224.488 105.485 232.232 105.485 240.68V257H99.213V240.68C99.213 234.6 96.973 230.76 92.621 230.76C89.357 230.76 82.317 233.064 82.317 245.032V257H76.045ZM114.732 230.632H108.14V224.744H109.356C112.3 224.744 116.012 219.432 116.012 215.016L122.348 214.952C122.22 218.472 120.62 221.928 117.676 223.912C116.588 224.616 114.796 224.808 113.516 225.064V225.192C114.796 224.936 116.524 224.744 117.804 224.744H129.132V230.632H121.004V247.656C121.004 250.472 122.54 251.112 124.524 251.112H130.668V257H124.844C116.46 257 114.732 253.864 114.732 246.44V230.632ZM148.444 257.384C138.972 257.448 130.908 252.072 130.908 241C130.908 229.928 138.972 224.552 148.444 224.616C157.852 224.68 165.468 229.928 165.468 241C165.468 241.896 165.468 241.96 165.34 242.792H137.436C138.396 249.128 142.684 252.328 148.572 252.264C153.5 252.2 157.404 250.664 159.196 245.928L164.956 246.696C162.524 254.44 155.996 257.32 148.444 257.384ZM148.572 229.544C142.876 229.48 136.796 233.832 137.436 242.792C138.396 239.336 139.932 238.952 143.004 238.952H159.516C158.62 232.424 154.396 229.608 148.572 229.544ZM173.92 252.456C170.656 251.688 168.864 249.96 168.864 247.464C168.864 244.776 170.528 243.368 173.536 242.408C173.536 242.216 170.72 239.464 170.72 235.88C170.72 228.264 178.784 225.064 185.632 225.064C188.448 225.064 190.304 225.576 192.736 226.344C190.432 221.48 197.536 221.096 203.168 221.224V225.768H199.264C197.92 225.768 194.336 225.896 196.192 227.816C196.512 228.136 200.224 231.016 200.224 235.688C200.224 243.176 192.16 246.44 185.44 246.44C183.583 246.44 181.728 246.184 180 245.672C179.424 245.48 178.848 245.224 178.72 245.224C177.12 245.16 175.392 246.184 175.392 247.144C175.392 253.096 204.192 246.76 204.192 260.392C204.192 267.944 193.376 269.8 185.888 269.8C178.912 269.8 166.688 267.944 166.688 260.392C166.688 255.4 170.336 253.672 173.92 252.456ZM173.024 260.072C173.024 264.04 181.536 265.192 185.952 265.192C190.112 265.192 197.856 264.168 197.856 260.072C197.856 255.848 189.216 255.08 184.544 254.632C183.904 254.568 182.496 254.376 181.856 254.376C178.912 254.376 173.024 256.296 173.024 260.072ZM176.992 235.816C176.992 240.36 181.6 241.768 185.44 241.768C189.344 241.768 193.952 240.424 193.952 235.752C193.952 231.208 189.344 229.8 185.568 229.8C181.664 229.8 176.992 231.144 176.992 235.816ZM206.983 233.576C206.983 227.816 209.671 225 215.495 225H228.359V230.888L217.543 230.952C213.959 230.952 213.255 231.336 213.255 235.752V257H206.983V233.576ZM254.443 249.128C252.651 254.504 246.955 256.936 241.451 256.936C235.179 256.936 229.035 253.736 229.035 247.912C229.035 233.832 254.635 241.96 254.443 236.584C254.251 231.72 251.115 229.864 245.035 229.864C240.107 229.864 236.203 231.08 235.499 236.136L229.995 235.368C230.827 227.624 238.187 224.744 245.035 224.808C252.779 224.872 260.458 227.752 260.458 237.352V249C260.458 250.664 261.035 251.048 262.379 251.048H263.851V257H259.755C256.555 257 254.443 254.76 254.443 251.944V249.128ZM235.179 247.784C235.179 251.176 238.827 252.712 242.987 252.712C248.299 252.712 254.443 250.152 254.443 245.672V241.448C248.939 244.648 235.179 240.104 235.179 247.784ZM272.732 230.632H266.14V224.744H267.356C270.3 224.744 274.012 219.432 274.012 215.016L280.348 214.952C280.22 218.472 278.62 221.928 275.676 223.912C274.588 224.616 272.796 224.808 271.516 225.064V225.192C272.796 224.936 274.524 224.744 275.804 224.744H287.132V230.632H279.004V247.656C279.004 250.472 280.54 251.112 282.524 251.112H288.668V257H282.844C274.46 257 272.732 253.864 272.732 246.44V230.632ZM290.67 217.64H297.134V212.2H290.67V217.64ZM290.798 257V225H297.006V257H290.798ZM318.135 257.384C308.663 257.384 300.471 252.072 300.471 241C300.471 229.928 308.663 224.552 318.135 224.616C327.671 224.68 335.863 229.928 335.863 241C335.863 252.072 327.671 257.384 318.135 257.384ZM318.135 229.928C312.247 229.864 306.743 233.768 306.743 241C306.743 248.488 311.799 252.008 318.135 252.008C324.343 252.008 329.591 248.36 329.591 241C329.591 233.768 324.215 229.992 318.135 229.928ZM339.17 257V225H345.442V231.592C345.442 232.872 345.186 234.6 344.93 235.88L345.058 235.944C345.314 234.664 345.698 232.936 346.338 231.784C348.962 226.728 353.57 224.488 357.858 224.488C365.922 224.488 368.61 232.232 368.61 240.68V257H362.338V240.68C362.338 234.6 360.098 230.76 355.746 230.76C352.482 230.76 345.442 233.064 345.442 245.032V257H339.17ZM372.033 247.784L378.113 246.696C378.689 250.984 382.017 252.456 387.713 252.456C393.793 252.456 397.057 250.792 397.057 246.632C397.057 240.616 372.609 246.376 372.609 234.472C372.609 225.256 383.809 224.552 387.777 224.552C392.769 224.552 401.537 226.088 402.497 233.192L396.801 234.024C396.161 230.504 393.217 229.48 387.649 229.48C381.825 229.48 378.881 230.632 378.881 234.664C378.881 240.808 403.329 235.048 403.329 246.76C403.329 256.552 391.617 257.384 387.585 257.384C383.873 257.384 372.801 256.296 372.033 247.784Z" fill="#181818"/>
<path d="M65.86 314V300H67.56V314H65.86ZM70.8297 314V304H72.3297L72.4297 305.84V314H70.8297ZM77.8497 314V308.88L79.4497 308.28V314H77.8497ZM77.8497 308.88C77.8497 307.893 77.7364 307.14 77.5097 306.62C77.283 306.1 76.9697 305.747 76.5697 305.56C76.1697 305.36 75.7164 305.26 75.2097 305.26C74.3297 305.26 73.643 305.573 73.1497 306.2C72.6697 306.813 72.4297 307.687 72.4297 308.82H71.6497C71.6497 307.767 71.803 306.86 72.1097 306.1C72.4164 305.34 72.8564 304.76 73.4297 304.36C74.0164 303.96 74.723 303.76 75.5497 303.76C76.763 303.76 77.7164 304.133 78.4097 304.88C79.1164 305.627 79.463 306.76 79.4497 308.28L77.8497 308.88ZM85.942 314.24C84.9687 314.24 84.2154 313.987 83.682 313.48C83.1487 312.973 82.882 312.26 82.882 311.34V300.88H84.482V311.18C84.482 311.687 84.6154 312.08 84.882 312.36C85.162 312.627 85.5487 312.76 86.042 312.76C86.202 312.76 86.3554 312.74 86.502 312.7C86.662 312.647 86.8687 312.527 87.122 312.34L87.742 313.64C87.3954 313.867 87.082 314.02 86.802 314.1C86.522 314.193 86.2354 314.24 85.942 314.24ZM81.142 305.42V304H87.482V305.42H81.142ZM94.0973 314.24C93.124 314.24 92.264 314.02 91.5173 313.58C90.784 313.127 90.204 312.507 89.7773 311.72C89.3507 310.933 89.1373 310.027 89.1373 309C89.1373 307.973 89.344 307.067 89.7573 306.28C90.184 305.493 90.7707 304.88 91.5173 304.44C92.264 303.987 93.1107 303.76 94.0573 303.76C94.9907 303.76 95.7973 303.993 96.4773 304.46C97.1573 304.913 97.684 305.553 98.0573 306.38C98.4307 307.207 98.6173 308.18 98.6173 309.3H97.0173C97.0173 308.447 96.904 307.72 96.6773 307.12C96.4507 306.507 96.1173 306.033 95.6773 305.7C95.2373 305.367 94.6907 305.2 94.0373 305.2C93.384 305.2 92.8107 305.36 92.3173 305.68C91.8373 305.987 91.464 306.427 91.1973 307C90.9307 307.573 90.7973 308.247 90.7973 309.02C90.7973 309.78 90.944 310.44 91.2373 311C91.5307 311.547 91.9307 311.98 92.4373 312.3C92.944 312.607 93.524 312.76 94.1773 312.76C94.884 312.76 95.4773 312.593 95.9573 312.26C96.4373 311.927 96.8107 311.493 97.0773 310.96L98.4973 311.66C98.2307 312.18 97.884 312.633 97.4573 313.02C97.044 313.407 96.5573 313.707 95.9973 313.92C95.4373 314.133 94.804 314.24 94.0973 314.24ZM90.2173 309.3V307.92H97.6373V309.3H90.2173ZM104.693 318.24C104.053 318.24 103.466 318.173 102.933 318.04C102.413 317.92 101.966 317.78 101.593 317.62C101.233 317.473 100.973 317.347 100.813 317.24L101.413 315.94C101.586 316.033 101.833 316.147 102.153 316.28C102.473 316.427 102.846 316.547 103.273 316.64C103.713 316.747 104.18 316.8 104.673 316.8C105.313 316.8 105.886 316.667 106.393 316.4C106.913 316.147 107.313 315.74 107.593 315.18C107.886 314.633 108.033 313.927 108.033 313.06V304H109.633V313.04C109.633 314.187 109.42 315.147 108.993 315.92C108.566 316.693 107.98 317.273 107.233 317.66C106.486 318.047 105.64 318.24 104.693 318.24ZM104.633 313.92C103.74 313.92 102.953 313.707 102.273 313.28C101.593 312.853 101.06 312.26 100.673 311.5C100.3 310.727 100.113 309.847 100.113 308.86C100.113 307.847 100.3 306.96 100.673 306.2C101.06 305.427 101.593 304.827 102.273 304.4C102.953 303.973 103.74 303.76 104.633 303.76C105.473 303.76 106.206 303.973 106.833 304.4C107.46 304.827 107.946 305.427 108.293 306.2C108.653 306.96 108.833 307.847 108.833 308.86C108.833 309.86 108.653 310.74 108.293 311.5C107.946 312.26 107.46 312.853 106.833 313.28C106.206 313.707 105.473 313.92 104.633 313.92ZM105.013 312.54C105.6 312.54 106.12 312.38 106.573 312.06C107.026 311.74 107.38 311.307 107.633 310.76C107.886 310.2 108.013 309.553 108.013 308.82C108.013 308.113 107.88 307.487 107.613 306.94C107.36 306.38 107.006 305.947 106.553 305.64C106.113 305.32 105.593 305.16 104.993 305.16C104.366 305.16 103.806 305.32 103.313 305.64C102.833 305.947 102.453 306.38 102.173 306.94C101.906 307.487 101.773 308.113 101.773 308.82C101.773 309.553 101.913 310.2 102.193 310.76C102.473 311.307 102.853 311.74 103.333 312.06C103.826 312.38 104.386 312.54 105.013 312.54ZM113.057 308.58C113.057 307.5 113.264 306.627 113.677 305.96C114.091 305.28 114.617 304.78 115.257 304.46C115.911 304.127 116.597 303.96 117.317 303.96V305.46C116.731 305.46 116.164 305.56 115.617 305.76C115.084 305.947 114.644 306.26 114.297 306.7C113.951 307.14 113.777 307.74 113.777 308.5L113.057 308.58ZM112.177 314V304H113.777V314H112.177ZM125.195 314L125.035 308.72C125.008 307.933 124.908 307.287 124.735 306.78C124.562 306.26 124.295 305.873 123.935 305.62C123.575 305.353 123.095 305.22 122.495 305.22C121.922 305.22 121.422 305.333 120.995 305.56C120.582 305.787 120.242 306.14 119.975 306.62L118.555 306.04C118.808 305.573 119.122 305.173 119.495 304.84C119.868 304.493 120.308 304.227 120.815 304.04C121.322 303.853 121.888 303.76 122.515 303.76C123.435 303.76 124.202 303.94 124.815 304.3C125.428 304.66 125.882 305.2 126.175 305.92C126.482 306.627 126.635 307.513 126.635 308.58V314H125.195ZM122.155 314.24C120.968 314.24 120.042 313.973 119.375 313.44C118.722 312.893 118.395 312.14 118.395 311.18C118.395 310.167 118.728 309.393 119.395 308.86C120.075 308.313 121.022 308.04 122.235 308.04H125.755V309.38H122.595C121.662 309.38 120.995 309.533 120.595 309.84C120.208 310.147 120.015 310.587 120.015 311.16C120.015 311.68 120.208 312.093 120.595 312.4C120.982 312.693 121.522 312.84 122.215 312.84C122.802 312.84 123.308 312.707 123.735 312.44C124.162 312.173 124.488 311.813 124.715 311.36C124.942 310.893 125.055 310.367 125.055 309.78H126.035C126.035 311.14 125.702 312.227 125.035 313.04C124.368 313.84 123.408 314.24 122.155 314.24ZM133.13 314.24C132.156 314.24 131.403 313.987 130.87 313.48C130.336 312.973 130.07 312.26 130.07 311.34V300.88H131.67V311.18C131.67 311.687 131.803 312.08 132.07 312.36C132.35 312.627 132.736 312.76 133.23 312.76C133.39 312.76 133.543 312.74 133.69 312.7C133.85 312.647 134.056 312.527 134.31 312.34L134.93 313.64C134.583 313.867 134.27 314.02 133.99 314.1C133.71 314.193 133.423 314.24 133.13 314.24ZM128.33 305.42V304H134.67V305.42H128.33ZM141.285 314.24C140.312 314.24 139.452 314.02 138.705 313.58C137.972 313.127 137.392 312.507 136.965 311.72C136.538 310.933 136.325 310.027 136.325 309C136.325 307.973 136.532 307.067 136.945 306.28C137.372 305.493 137.958 304.88 138.705 304.44C139.452 303.987 140.298 303.76 141.245 303.76C142.178 303.76 142.985 303.993 143.665 304.46C144.345 304.913 144.872 305.553 145.245 306.38C145.618 307.207 145.805 308.18 145.805 309.3H144.205C144.205 308.447 144.092 307.72 143.865 307.12C143.638 306.507 143.305 306.033 142.865 305.7C142.425 305.367 141.878 305.2 141.225 305.2C140.572 305.2 139.998 305.36 139.505 305.68C139.025 305.987 138.652 306.427 138.385 307C138.118 307.573 137.985 308.247 137.985 309.02C137.985 309.78 138.132 310.44 138.425 311C138.718 311.547 139.118 311.98 139.625 312.3C140.132 312.607 140.712 312.76 141.365 312.76C142.072 312.76 142.665 312.593 143.145 312.26C143.625 311.927 143.998 311.493 144.265 310.96L145.685 311.66C145.418 312.18 145.072 312.633 144.645 313.02C144.232 313.407 143.745 313.707 143.185 313.92C142.625 314.133 141.992 314.24 141.285 314.24ZM137.405 309.3V307.92H144.825V309.3H137.405ZM162.982 314L157.362 300H159.062L164.762 314H162.982ZM151.602 314L157.302 300H159.022L153.402 314H151.602ZM154.302 310.02V308.5H162.082V310.02H154.302ZM166.817 314V300H168.517V314H166.817ZM171.547 308.78V307.32H177.547V308.78H171.547ZM180.227 318V304H181.727L181.827 305.84V318H180.227ZM185.207 314.24C184.367 314.24 183.627 314.02 182.987 313.58C182.36 313.14 181.873 312.527 181.527 311.74C181.18 310.94 181.007 310.027 181.007 309C181.007 307.96 181.18 307.047 181.527 306.26C181.873 305.473 182.36 304.86 182.987 304.42C183.627 303.98 184.367 303.76 185.207 303.76C186.1 303.76 186.887 303.98 187.567 304.42C188.247 304.86 188.773 305.473 189.147 306.26C189.533 307.047 189.727 307.96 189.727 309C189.727 310.027 189.533 310.94 189.147 311.74C188.773 312.527 188.247 313.14 187.567 313.58C186.887 314.02 186.1 314.24 185.207 314.24ZM184.847 312.78C185.473 312.78 186.027 312.62 186.507 312.3C187 311.98 187.387 311.533 187.667 310.96C187.96 310.387 188.107 309.733 188.107 309C188.107 308.267 187.967 307.613 187.687 307.04C187.42 306.467 187.04 306.02 186.547 305.7C186.053 305.38 185.493 305.22 184.867 305.22C184.28 305.22 183.753 305.38 183.287 305.7C182.833 306.02 182.473 306.467 182.207 307.04C181.953 307.613 181.827 308.267 181.827 309C181.827 309.733 181.953 310.387 182.207 310.96C182.473 311.533 182.833 311.98 183.287 312.3C183.74 312.62 184.26 312.78 184.847 312.78ZM196.423 314.24C195.45 314.24 194.583 314.02 193.823 313.58C193.063 313.127 192.47 312.507 192.043 311.72C191.616 310.933 191.403 310.027 191.403 309C191.403 307.973 191.61 307.067 192.023 306.28C192.45 305.493 193.043 304.88 193.803 304.44C194.563 303.987 195.423 303.76 196.383 303.76C197.37 303.76 198.236 303.987 198.983 304.44C199.743 304.88 200.33 305.493 200.743 306.28C201.17 307.067 201.383 307.973 201.383 309C201.383 310.027 201.17 310.933 200.743 311.72C200.33 312.507 199.75 313.127 199.003 313.58C198.256 314.02 197.396 314.24 196.423 314.24ZM196.423 312.72C197.076 312.72 197.65 312.567 198.143 312.26C198.636 311.94 199.023 311.5 199.303 310.94C199.583 310.38 199.723 309.733 199.723 309C199.723 308.267 199.576 307.62 199.283 307.06C199.003 306.5 198.61 306.067 198.103 305.76C197.61 305.44 197.036 305.28 196.383 305.28C195.73 305.28 195.156 305.44 194.663 305.76C194.17 306.067 193.776 306.5 193.483 307.06C193.203 307.62 193.063 308.267 193.063 309C193.063 309.733 193.203 310.38 193.483 310.94C193.776 311.5 194.176 311.94 194.683 312.26C195.19 312.567 195.77 312.72 196.423 312.72ZM212.468 314L215.848 304H217.468L214.068 314H212.468ZM205.668 314L209.048 304H210.548L207.208 314H205.668ZM205.588 314L202.188 304H203.808L207.148 314H205.588ZM212.468 314L209.128 304H210.648L213.988 314H212.468ZM223.258 314.24C222.284 314.24 221.424 314.02 220.678 313.58C219.944 313.127 219.364 312.507 218.938 311.72C218.511 310.933 218.298 310.027 218.298 309C218.298 307.973 218.504 307.067 218.918 306.28C219.344 305.493 219.931 304.88 220.678 304.44C221.424 303.987 222.271 303.76 223.218 303.76C224.151 303.76 224.958 303.993 225.638 304.46C226.318 304.913 226.844 305.553 227.218 306.38C227.591 307.207 227.778 308.18 227.778 309.3H226.178C226.178 308.447 226.064 307.72 225.838 307.12C225.611 306.507 225.278 306.033 224.838 305.7C224.398 305.367 223.851 305.2 223.198 305.2C222.544 305.2 221.971 305.36 221.478 305.68C220.998 305.987 220.624 306.427 220.358 307C220.091 307.573 219.958 308.247 219.958 309.02C219.958 309.78 220.104 310.44 220.398 311C220.691 311.547 221.091 311.98 221.598 312.3C222.104 312.607 222.684 312.76 223.338 312.76C224.044 312.76 224.638 312.593 225.118 312.26C225.598 311.927 225.971 311.493 226.238 310.96L227.658 311.66C227.391 312.18 227.044 312.633 226.618 313.02C226.204 313.407 225.718 313.707 225.158 313.92C224.598 314.133 223.964 314.24 223.258 314.24ZM219.378 309.3V307.92H226.798V309.3H219.378ZM230.733 308.58C230.733 307.5 230.94 306.627 231.353 305.96C231.766 305.28 232.293 304.78 232.933 304.46C233.586 304.127 234.273 303.96 234.993 303.96V305.46C234.406 305.46 233.84 305.56 233.293 305.76C232.76 305.947 232.32 306.26 231.973 306.7C231.626 307.14 231.453 307.74 231.453 308.5L230.733 308.58ZM229.853 314V304H231.453V314H229.853ZM241.031 314.24C240.058 314.24 239.198 314.02 238.451 313.58C237.718 313.127 237.138 312.507 236.711 311.72C236.284 310.933 236.071 310.027 236.071 309C236.071 307.973 236.278 307.067 236.691 306.28C237.118 305.493 237.704 304.88 238.451 304.44C239.198 303.987 240.044 303.76 240.991 303.76C241.924 303.76 242.731 303.993 243.411 304.46C244.091 304.913 244.618 305.553 244.991 306.38C245.364 307.207 245.551 308.18 245.551 309.3H243.951C243.951 308.447 243.838 307.72 243.611 307.12C243.384 306.507 243.051 306.033 242.611 305.7C242.171 305.367 241.624 305.2 240.971 305.2C240.318 305.2 239.744 305.36 239.251 305.68C238.771 305.987 238.398 306.427 238.131 307C237.864 307.573 237.731 308.247 237.731 309.02C237.731 309.78 237.878 310.44 238.171 311C238.464 311.547 238.864 311.98 239.371 312.3C239.878 312.607 240.458 312.76 241.111 312.76C241.818 312.76 242.411 312.593 242.891 312.26C243.371 311.927 243.744 311.493 244.011 310.96L245.431 311.66C245.164 312.18 244.818 312.633 244.391 313.02C243.978 313.407 243.491 313.707 242.931 313.92C242.371 314.133 241.738 314.24 241.031 314.24ZM237.151 309.3V307.92H244.571V309.3H237.151ZM255.027 314L254.947 312.14V300H256.547V314H255.027ZM251.567 314.24C250.673 314.24 249.887 314.02 249.207 313.58C248.527 313.14 247.993 312.527 247.607 311.74C247.233 310.94 247.047 310.027 247.047 309C247.047 307.96 247.233 307.047 247.607 306.26C247.993 305.473 248.527 304.86 249.207 304.42C249.887 303.98 250.673 303.76 251.567 303.76C252.407 303.76 253.14 303.98 253.767 304.42C254.407 304.86 254.9 305.473 255.247 306.26C255.593 307.047 255.767 307.96 255.767 309C255.767 310.027 255.593 310.94 255.247 311.74C254.9 312.527 254.407 313.14 253.767 313.58C253.14 314.02 252.407 314.24 251.567 314.24ZM251.927 312.78C252.513 312.78 253.033 312.62 253.487 312.3C253.94 311.98 254.293 311.533 254.547 310.96C254.813 310.387 254.947 309.733 254.947 309C254.947 308.267 254.813 307.613 254.547 307.04C254.293 306.467 253.94 306.02 253.487 305.7C253.033 305.38 252.507 305.22 251.907 305.22C251.28 305.22 250.72 305.38 250.227 305.7C249.747 306.02 249.367 306.467 249.087 307.04C248.807 307.613 248.667 308.267 248.667 309C248.667 309.733 248.807 310.387 249.087 310.96C249.367 311.533 249.753 311.98 250.247 312.3C250.74 312.62 251.3 312.78 251.927 312.78ZM269.007 314V312.44C269.713 312.44 270.367 312.307 270.967 312.04C271.567 311.76 272.093 311.367 272.547 310.86C273.013 310.353 273.373 309.773 273.627 309.12C273.893 308.453 274.027 307.747 274.027 307C274.027 306.253 273.893 305.553 273.627 304.9C273.373 304.233 273.013 303.647 272.547 303.14C272.093 302.633 271.567 302.247 270.967 301.98C270.367 301.7 269.713 301.56 269.007 301.56V300C270.327 300 271.487 300.3 272.487 300.9C273.5 301.487 274.293 302.307 274.867 303.36C275.44 304.413 275.727 305.627 275.727 307C275.727 308.36 275.44 309.567 274.867 310.62C274.293 311.673 273.5 312.5 272.487 313.1C271.487 313.7 270.327 314 269.007 314ZM266.107 314V312.44H269.007V314H266.107ZM264.747 314V300H266.447V314H264.747ZM266.107 301.56V300H269.007V301.56H266.107ZM282.476 314.24C281.503 314.24 280.643 314.02 279.896 313.58C279.163 313.127 278.583 312.507 278.156 311.72C277.73 310.933 277.516 310.027 277.516 309C277.516 307.973 277.723 307.067 278.136 306.28C278.563 305.493 279.15 304.88 279.896 304.44C280.643 303.987 281.49 303.76 282.436 303.76C283.37 303.76 284.176 303.993 284.856 304.46C285.536 304.913 286.063 305.553 286.436 306.38C286.81 307.207 286.996 308.18 286.996 309.3H285.396C285.396 308.447 285.283 307.72 285.056 307.12C284.83 306.507 284.496 306.033 284.056 305.7C283.616 305.367 283.07 305.2 282.416 305.2C281.763 305.2 281.19 305.36 280.696 305.68C280.216 305.987 279.843 306.427 279.576 307C279.31 307.573 279.176 308.247 279.176 309.02C279.176 309.78 279.323 310.44 279.616 311C279.91 311.547 280.31 311.98 280.816 312.3C281.323 312.607 281.903 312.76 282.556 312.76C283.263 312.76 283.856 312.593 284.336 312.26C284.816 311.927 285.19 311.493 285.456 310.96L286.876 311.66C286.61 312.18 286.263 312.633 285.836 313.02C285.423 313.407 284.936 313.707 284.376 313.92C283.816 314.133 283.183 314.24 282.476 314.24ZM278.596 309.3V307.92H286.016V309.3H278.596ZM289.532 314V300H291.232V314H289.532ZM291.072 307.86V306.32H297.072V307.86H291.072ZM291.072 301.54V300H297.852V301.54H291.072ZM300.031 314L300.071 304H301.671L301.631 314H300.031ZM300.851 301.68C300.585 301.68 300.351 301.58 300.151 301.38C299.951 301.18 299.851 300.947 299.851 300.68C299.851 300.4 299.951 300.167 300.151 299.98C300.351 299.78 300.585 299.68 300.851 299.68C301.131 299.68 301.365 299.78 301.551 299.98C301.751 300.167 301.851 300.4 301.851 300.68C301.851 300.947 301.751 301.18 301.551 301.38C301.365 301.58 301.131 301.68 300.851 301.68ZM310.421 318.24C310.168 318.24 309.874 318.187 309.541 318.08C309.208 317.987 308.854 317.86 308.481 317.7L309.081 316.36C309.388 316.493 309.654 316.593 309.881 316.66C310.121 316.727 310.308 316.76 310.441 316.76C310.801 316.76 311.094 316.66 311.321 316.46C311.561 316.273 311.761 316 311.921 315.64L313.061 312.92L316.761 304H318.481L313.681 315.4C313.428 315.987 313.161 316.493 312.881 316.92C312.614 317.347 312.288 317.673 311.901 317.9C311.514 318.127 311.021 318.24 310.421 318.24ZM312.621 314L308.301 304H310.001L313.721 312.9L314.201 314H312.621ZM320.148 314L320.188 304H321.788L321.748 314H320.148ZM320.968 301.68C320.702 301.68 320.468 301.58 320.268 301.38C320.068 301.18 319.968 300.947 319.968 300.68C319.968 300.4 320.068 300.167 320.268 299.98C320.468 299.78 320.702 299.68 320.968 299.68C321.248 299.68 321.482 299.78 321.668 299.98C321.868 300.167 321.968 300.4 321.968 300.68C321.968 300.947 321.868 301.18 321.668 301.38C321.482 301.58 321.248 301.68 320.968 301.68ZM329.117 314.24C328.144 314.24 327.284 314.02 326.537 313.58C325.804 313.127 325.224 312.507 324.797 311.72C324.37 310.933 324.157 310.027 324.157 309C324.157 307.973 324.364 307.067 324.777 306.28C325.204 305.493 325.79 304.88 326.537 304.44C327.284 303.987 328.13 303.76 329.077 303.76C330.01 303.76 330.817 303.993 331.497 304.46C332.177 304.913 332.704 305.553 333.077 306.38C333.45 307.207 333.637 308.18 333.637 309.3H332.037C332.037 308.447 331.924 307.72 331.697 307.12C331.47 306.507 331.137 306.033 330.697 305.7C330.257 305.367 329.71 305.2 329.057 305.2C328.404 305.2 327.83 305.36 327.337 305.68C326.857 305.987 326.484 306.427 326.217 307C325.95 307.573 325.817 308.247 325.817 309.02C325.817 309.78 325.964 310.44 326.257 311C326.55 311.547 326.95 311.98 327.457 312.3C327.964 312.607 328.544 312.76 329.197 312.76C329.904 312.76 330.497 312.593 330.977 312.26C331.457 311.927 331.83 311.493 332.097 310.96L333.517 311.66C333.25 312.18 332.904 312.633 332.477 313.02C332.064 313.407 331.577 313.707 331.017 313.92C330.457 314.133 329.824 314.24 329.117 314.24ZM325.237 309.3V307.92H332.657V309.3H325.237ZM335.713 314L335.753 300H337.353L337.313 314H335.713ZM347.546 314L347.466 312.14V300H349.066V314H347.546ZM344.086 314.24C343.193 314.24 342.406 314.02 341.726 313.58C341.046 313.14 340.513 312.527 340.126 311.74C339.753 310.94 339.566 310.027 339.566 309C339.566 307.96 339.753 307.047 340.126 306.26C340.513 305.473 341.046 304.86 341.726 304.42C342.406 303.98 343.193 303.76 344.086 303.76C344.926 303.76 345.659 303.98 346.286 304.42C346.926 304.86 347.419 305.473 347.766 306.26C348.113 307.047 348.286 307.96 348.286 309C348.286 310.027 348.113 310.94 347.766 311.74C347.419 312.527 346.926 313.14 346.286 313.58C345.659 314.02 344.926 314.24 344.086 314.24ZM344.446 312.78C345.033 312.78 345.553 312.62 346.006 312.3C346.459 311.98 346.813 311.533 347.066 310.96C347.333 310.387 347.466 309.733 347.466 309C347.466 308.267 347.333 307.613 347.066 307.04C346.813 306.467 346.459 306.02 346.006 305.7C345.553 305.38 345.026 305.22 344.426 305.22C343.799 305.22 343.239 305.38 342.746 305.7C342.266 306.02 341.886 306.467 341.606 307.04C341.326 307.613 341.186 308.267 341.186 309C341.186 309.733 341.326 310.387 341.606 310.96C341.886 311.533 342.273 311.98 342.766 312.3C343.259 312.62 343.819 312.78 344.446 312.78ZM69.88 342.24C68.9067 342.24 68.04 342.02 67.28 341.58C66.52 341.127 65.9267 340.507 65.5 339.72C65.0733 338.933 64.86 338.027 64.86 337C64.86 335.973 65.0667 335.067 65.48 334.28C65.9067 333.493 66.5 332.88 67.26 332.44C68.02 331.987 68.88 331.76 69.84 331.76C70.8267 331.76 71.6933 331.987 72.44 332.44C73.2 332.88 73.7867 333.493 74.2 334.28C74.6267 335.067 74.84 335.973 74.84 337C74.84 338.027 74.6267 338.933 74.2 339.72C73.7867 340.507 73.2067 341.127 72.46 341.58C71.7133 342.02 70.8533 342.24 69.88 342.24ZM69.88 340.72C70.5333 340.72 71.1067 340.567 71.6 340.26C72.0933 339.94 72.48 339.5 72.76 338.94C73.04 338.38 73.18 337.733 73.18 337C73.18 336.267 73.0333 335.62 72.74 335.06C72.46 334.5 72.0667 334.067 71.56 333.76C71.0667 333.44 70.4933 333.28 69.84 333.28C69.1867 333.28 68.6133 333.44 68.12 333.76C67.6267 334.067 67.2333 334.5 66.94 335.06C66.66 335.62 66.52 336.267 66.52 337C66.52 337.733 66.66 338.38 66.94 338.94C67.2333 339.5 67.6333 339.94 68.14 340.26C68.6467 340.567 69.2267 340.72 69.88 340.72ZM77.1992 346V332H78.6992L78.7992 333.84V346H77.1992ZM82.1792 342.24C81.3392 342.24 80.5992 342.02 79.9592 341.58C79.3326 341.14 78.8459 340.527 78.4992 339.74C78.1526 338.94 77.9792 338.027 77.9792 337C77.9792 335.96 78.1526 335.047 78.4992 334.26C78.8459 333.473 79.3326 332.86 79.9592 332.42C80.5992 331.98 81.3392 331.76 82.1792 331.76C83.0726 331.76 83.8592 331.98 84.5392 332.42C85.2192 332.86 85.7459 333.473 86.1192 334.26C86.5059 335.047 86.6992 335.96 86.6992 337C86.6992 338.027 86.5059 338.94 86.1192 339.74C85.7459 340.527 85.2192 341.14 84.5392 341.58C83.8592 342.02 83.0726 342.24 82.1792 342.24ZM81.8192 340.78C82.4459 340.78 82.9992 340.62 83.4792 340.3C83.9726 339.98 84.3592 339.533 84.6392 338.96C84.9326 338.387 85.0792 337.733 85.0792 337C85.0792 336.267 84.9392 335.613 84.6592 335.04C84.3926 334.467 84.0126 334.02 83.5192 333.7C83.0259 333.38 82.4659 333.22 81.8392 333.22C81.2526 333.22 80.7259 333.38 80.2592 333.7C79.8059 334.02 79.4459 334.467 79.1792 335.04C78.9259 335.613 78.7992 336.267 78.7992 337C78.7992 337.733 78.9259 338.387 79.1792 338.96C79.4459 339.533 79.8059 339.98 80.2592 340.3C80.7126 340.62 81.2326 340.78 81.8192 340.78ZM92.8756 342.24C91.9023 342.24 91.149 341.987 90.6156 341.48C90.0823 340.973 89.8156 340.26 89.8156 339.34V328.88H91.4156V339.18C91.4156 339.687 91.549 340.08 91.8156 340.36C92.0956 340.627 92.4823 340.76 92.9756 340.76C93.1356 340.76 93.289 340.74 93.4356 340.7C93.5956 340.647 93.8023 340.527 94.0556 340.34L94.6756 341.64C94.329 341.867 94.0156 342.02 93.7356 342.1C93.4556 342.193 93.169 342.24 92.8756 342.24ZM88.0756 333.42V332H94.4156V333.42H88.0756ZM96.7109 342L96.7509 332H98.3509L98.3109 342H96.7109ZM97.5309 329.68C97.2643 329.68 97.0309 329.58 96.8309 329.38C96.6309 329.18 96.5309 328.947 96.5309 328.68C96.5309 328.4 96.6309 328.167 96.8309 327.98C97.0309 327.78 97.2643 327.68 97.5309 327.68C97.8109 327.68 98.0443 327.78 98.2309 327.98C98.4309 328.167 98.5309 328.4 98.5309 328.68C98.5309 328.947 98.4309 329.18 98.2309 329.38C98.0443 329.58 97.8109 329.68 97.5309 329.68ZM101.259 342V332H102.759L102.859 333.84V342H101.259ZM108.279 342V336.88L109.879 336.28V342H108.279ZM115.319 342V336.88L116.919 336.28V342H115.319ZM108.279 336.88C108.279 335.893 108.166 335.14 107.939 334.62C107.713 334.1 107.399 333.747 106.999 333.56C106.599 333.36 106.146 333.26 105.639 333.26C104.759 333.26 104.073 333.573 103.579 334.2C103.099 334.813 102.859 335.687 102.859 336.82H102.079C102.079 335.767 102.233 334.86 102.539 334.1C102.846 333.34 103.286 332.76 103.859 332.36C104.446 331.96 105.153 331.76 105.979 331.76C107.193 331.76 108.146 332.133 108.839 332.88C109.546 333.627 109.893 334.76 109.879 336.28L108.279 336.88ZM115.319 336.88C115.319 335.893 115.199 335.14 114.959 334.62C114.733 334.1 114.419 333.747 114.019 333.56C113.619 333.36 113.166 333.26 112.659 333.26C111.779 333.26 111.093 333.573 110.599 334.2C110.119 334.813 109.879 335.687 109.879 336.82H109.099C109.099 335.767 109.253 334.86 109.559 334.1C109.866 333.34 110.313 332.76 110.899 332.36C111.486 331.96 112.193 331.76 113.019 331.76C114.219 331.76 115.166 332.133 115.859 332.88C116.566 333.627 116.919 334.76 116.919 336.28L115.319 336.88ZM119.543 342L119.583 332H121.183L121.143 342H119.543ZM120.363 329.68C120.096 329.68 119.863 329.58 119.663 329.38C119.463 329.18 119.363 328.947 119.363 328.68C119.363 328.4 119.463 328.167 119.663 327.98C119.863 327.78 120.096 327.68 120.363 327.68C120.643 327.68 120.876 327.78 121.063 327.98C121.263 328.167 121.363 328.4 121.363 328.68C121.363 328.947 121.263 329.18 121.063 329.38C120.876 329.58 120.643 329.68 120.363 329.68ZM124.811 341.62L123.591 340.72L130.391 332.32L131.571 333.24L124.811 341.62ZM123.591 342V340.72L124.651 340.6H131.611V342H123.591ZM123.591 333.4V332H131.571V333.24L130.511 333.4H123.591ZM140.176 342L140.016 336.72C139.989 335.933 139.889 335.287 139.716 334.78C139.542 334.26 139.276 333.873 138.916 333.62C138.556 333.353 138.076 333.22 137.476 333.22C136.902 333.22 136.402 333.333 135.976 333.56C135.562 333.787 135.222 334.14 134.956 334.62L133.536 334.04C133.789 333.573 134.102 333.173 134.476 332.84C134.849 332.493 135.289 332.227 135.796 332.04C136.302 331.853 136.869 331.76 137.496 331.76C138.416 331.76 139.182 331.94 139.796 332.3C140.409 332.66 140.862 333.2 141.156 333.92C141.462 334.627 141.616 335.513 141.616 336.58V342H140.176ZM137.136 342.24C135.949 342.24 135.022 341.973 134.356 341.44C133.702 340.893 133.376 340.14 133.376 339.18C133.376 338.167 133.709 337.393 134.376 336.86C135.056 336.313 136.002 336.04 137.216 336.04H140.736V337.38H137.576C136.642 337.38 135.976 337.533 135.576 337.84C135.189 338.147 134.996 338.587 134.996 339.16C134.996 339.68 135.189 340.093 135.576 340.4C135.962 340.693 136.502 340.84 137.196 340.84C137.782 340.84 138.289 340.707 138.716 340.44C139.142 340.173 139.469 339.813 139.696 339.36C139.922 338.893 140.036 338.367 140.036 337.78H141.016C141.016 339.14 140.682 340.227 140.016 341.04C139.349 341.84 138.389 342.24 137.136 342.24ZM148.11 342.24C147.137 342.24 146.383 341.987 145.85 341.48C145.317 340.973 145.05 340.26 145.05 339.34V328.88H146.65V339.18C146.65 339.687 146.783 340.08 147.05 340.36C147.33 340.627 147.717 340.76 148.21 340.76C148.37 340.76 148.523 340.74 148.67 340.7C148.83 340.647 149.037 340.527 149.29 340.34L149.91 341.64C149.563 341.867 149.25 342.02 148.97 342.1C148.69 342.193 148.403 342.24 148.11 342.24ZM143.31 333.42V332H149.65V333.42H143.31ZM151.945 342L151.985 332H153.585L153.545 342H151.945ZM152.765 329.68C152.499 329.68 152.265 329.58 152.065 329.38C151.865 329.18 151.765 328.947 151.765 328.68C151.765 328.4 151.865 328.167 152.065 327.98C152.265 327.78 152.499 327.68 152.765 327.68C153.045 327.68 153.279 327.78 153.465 327.98C153.665 328.167 153.765 328.4 153.765 328.68C153.765 328.947 153.665 329.18 153.465 329.38C153.279 329.58 153.045 329.68 152.765 329.68ZM160.974 342.24C160 342.24 159.134 342.02 158.374 341.58C157.614 341.127 157.02 340.507 156.594 339.72C156.167 338.933 155.954 338.027 155.954 337C155.954 335.973 156.16 335.067 156.574 334.28C157 333.493 157.594 332.88 158.354 332.44C159.114 331.987 159.974 331.76 160.934 331.76C161.92 331.76 162.787 331.987 163.534 332.44C164.294 332.88 164.88 333.493 165.294 334.28C165.72 335.067 165.934 335.973 165.934 337C165.934 338.027 165.72 338.933 165.294 339.72C164.88 340.507 164.3 341.127 163.554 341.58C162.807 342.02 161.947 342.24 160.974 342.24ZM160.974 340.72C161.627 340.72 162.2 340.567 162.694 340.26C163.187 339.94 163.574 339.5 163.854 338.94C164.134 338.38 164.274 337.733 164.274 337C164.274 336.267 164.127 335.62 163.834 335.06C163.554 334.5 163.16 334.067 162.654 333.76C162.16 333.44 161.587 333.28 160.934 333.28C160.28 333.28 159.707 333.44 159.214 333.76C158.72 334.067 158.327 334.5 158.034 335.06C157.754 335.62 157.614 336.267 157.614 337C157.614 337.733 157.754 338.38 158.034 338.94C158.327 339.5 158.727 339.94 159.234 340.26C159.74 340.567 160.32 340.72 160.974 340.72ZM168.193 342V332H169.693L169.793 333.84V342H168.193ZM175.213 342V336.88L176.813 336.28V342H175.213ZM175.213 336.88C175.213 335.893 175.1 335.14 174.873 334.62C174.646 334.1 174.333 333.747 173.933 333.56C173.533 333.36 173.08 333.26 172.573 333.26C171.693 333.26 171.006 333.573 170.513 334.2C170.033 334.813 169.793 335.687 169.793 336.82H169.013C169.013 335.767 169.166 334.86 169.473 334.1C169.78 333.34 170.22 332.76 170.793 332.36C171.38 331.96 172.086 331.76 172.913 331.76C174.126 331.76 175.08 332.133 175.773 332.88C176.48 333.627 176.826 334.76 176.813 336.28L175.213 336.88ZM184.387 342L184.427 332H186.027L185.987 342H184.387ZM185.207 329.68C184.94 329.68 184.707 329.58 184.507 329.38C184.307 329.18 184.207 328.947 184.207 328.68C184.207 328.4 184.307 328.167 184.507 327.98C184.707 327.78 184.94 327.68 185.207 327.68C185.487 327.68 185.72 327.78 185.907 327.98C186.107 328.167 186.207 328.4 186.207 328.68C186.207 328.947 186.107 329.18 185.907 329.38C185.72 329.58 185.487 329.68 185.207 329.68ZM188.935 342V332H190.435L190.535 333.84V342H188.935ZM195.955 342V336.88L197.555 336.28V342H195.955ZM195.955 336.88C195.955 335.893 195.842 335.14 195.615 334.62C195.388 334.1 195.075 333.747 194.675 333.56C194.275 333.36 193.822 333.26 193.315 333.26C192.435 333.26 191.748 333.573 191.255 334.2C190.775 334.813 190.535 335.687 190.535 336.82H189.755C189.755 335.767 189.908 334.86 190.215 334.1C190.522 333.34 190.962 332.76 191.535 332.36C192.122 331.96 192.828 331.76 193.655 331.76C194.868 331.76 195.822 332.133 196.515 332.88C197.222 333.627 197.568 334.76 197.555 336.28L195.955 336.88ZM204.048 342.24C203.074 342.24 202.321 341.987 201.788 341.48C201.254 340.973 200.988 340.26 200.988 339.34V328.88H202.588V339.18C202.588 339.687 202.721 340.08 202.988 340.36C203.268 340.627 203.654 340.76 204.148 340.76C204.308 340.76 204.461 340.74 204.608 340.7C204.768 340.647 204.974 340.527 205.228 340.34L205.848 341.64C205.501 341.867 205.188 342.02 204.908 342.1C204.628 342.193 204.341 342.24 204.048 342.24ZM199.248 333.42V332H205.588V333.42H199.248ZM212.263 342.24C211.289 342.24 210.423 342.02 209.663 341.58C208.903 341.127 208.309 340.507 207.883 339.72C207.456 338.933 207.243 338.027 207.243 337C207.243 335.973 207.449 335.067 207.863 334.28C208.289 333.493 208.883 332.88 209.643 332.44C210.403 331.987 211.263 331.76 212.223 331.76C213.209 331.76 214.076 331.987 214.823 332.44C215.583 332.88 216.169 333.493 216.583 334.28C217.009 335.067 217.223 335.973 217.223 337C217.223 338.027 217.009 338.933 216.583 339.72C216.169 340.507 215.589 341.127 214.843 341.58C214.096 342.02 213.236 342.24 212.263 342.24ZM212.263 340.72C212.916 340.72 213.489 340.567 213.983 340.26C214.476 339.94 214.863 339.5 215.143 338.94C215.423 338.38 215.563 337.733 215.563 337C215.563 336.267 215.416 335.62 215.123 335.06C214.843 334.5 214.449 334.067 213.943 333.76C213.449 333.44 212.876 333.28 212.223 333.28C211.569 333.28 210.996 333.44 210.503 333.76C210.009 334.067 209.616 334.5 209.323 335.06C209.043 335.62 208.903 336.267 208.903 337C208.903 337.733 209.043 338.38 209.323 338.94C209.616 339.5 210.016 339.94 210.523 340.26C211.029 340.567 211.609 340.72 212.263 340.72ZM225.323 346.24C225.07 346.24 224.777 346.187 224.443 346.08C224.11 345.987 223.757 345.86 223.383 345.7L223.983 344.36C224.29 344.493 224.557 344.593 224.783 344.66C225.023 344.727 225.21 344.76 225.343 344.76C225.703 344.76 225.997 344.66 226.223 344.46C226.463 344.273 226.663 344 226.823 343.64L227.963 340.92L231.663 332H233.383L228.583 343.4C228.33 343.987 228.063 344.493 227.783 344.92C227.517 345.347 227.19 345.673 226.803 345.9C226.417 346.127 225.923 346.24 225.323 346.24ZM227.523 342L223.203 332H224.903L228.623 340.9L229.103 342H227.523ZM239.196 342.24C238.223 342.24 237.356 342.02 236.596 341.58C235.836 341.127 235.243 340.507 234.816 339.72C234.39 338.933 234.176 338.027 234.176 337C234.176 335.973 234.383 335.067 234.796 334.28C235.223 333.493 235.816 332.88 236.576 332.44C237.336 331.987 238.196 331.76 239.156 331.76C240.143 331.76 241.01 331.987 241.756 332.44C242.516 332.88 243.103 333.493 243.516 334.28C243.943 335.067 244.156 335.973 244.156 337C244.156 338.027 243.943 338.933 243.516 339.72C243.103 340.507 242.523 341.127 241.776 341.58C241.03 342.02 240.17 342.24 239.196 342.24ZM239.196 340.72C239.85 340.72 240.423 340.567 240.916 340.26C241.41 339.94 241.796 339.5 242.076 338.94C242.356 338.38 242.496 337.733 242.496 337C242.496 336.267 242.35 335.62 242.056 335.06C241.776 334.5 241.383 334.067 240.876 333.76C240.383 333.44 239.81 333.28 239.156 333.28C238.503 333.28 237.93 333.44 237.436 333.76C236.943 334.067 236.55 334.5 236.256 335.06C235.976 335.62 235.836 336.267 235.836 337C235.836 337.733 235.976 338.38 236.256 338.94C236.55 339.5 236.95 339.94 237.456 340.26C237.963 340.567 238.543 340.72 239.196 340.72ZM253.276 342L253.176 340.16V332H254.776V342H253.276ZM246.156 337.72V332H247.756V337.12L246.156 337.72ZM247.756 337.12C247.756 338.107 247.869 338.86 248.096 339.38C248.322 339.9 248.636 340.26 249.036 340.46C249.449 340.647 249.909 340.74 250.416 340.74C251.282 340.74 251.956 340.427 252.436 339.8C252.929 339.173 253.176 338.3 253.176 337.18H253.956C253.956 338.233 253.802 339.14 253.496 339.9C253.189 340.66 252.742 341.24 252.156 341.64C251.582 342.04 250.882 342.24 250.056 342.24C248.842 342.24 247.882 341.867 247.176 341.12C246.482 340.373 246.142 339.24 246.156 337.72L247.756 337.12ZM258.448 336.58C258.448 335.5 258.655 334.627 259.068 333.96C259.481 333.28 260.008 332.78 260.648 332.46C261.301 332.127 261.988 331.96 262.708 331.96V333.46C262.121 333.46 261.555 333.56 261.008 333.76C260.475 333.947 260.035 334.26 259.688 334.7C259.341 335.14 259.168 335.74 259.168 336.5L258.448 336.58ZM257.568 342V332H259.168V342H257.568ZM275.527 342L275.367 336.72C275.341 335.933 275.241 335.287 275.067 334.78C274.894 334.26 274.627 333.873 274.267 333.62C273.907 333.353 273.427 333.22 272.827 333.22C272.254 333.22 271.754 333.333 271.327 333.56C270.914 333.787 270.574 334.14 270.307 334.62L268.887 334.04C269.141 333.573 269.454 333.173 269.827 332.84C270.201 332.493 270.641 332.227 271.147 332.04C271.654 331.853 272.221 331.76 272.847 331.76C273.767 331.76 274.534 331.94 275.147 332.3C275.761 332.66 276.214 333.2 276.507 333.92C276.814 334.627 276.967 335.513 276.967 336.58V342H275.527ZM272.487 342.24C271.301 342.24 270.374 341.973 269.707 341.44C269.054 340.893 268.727 340.14 268.727 339.18C268.727 338.167 269.061 337.393 269.727 336.86C270.407 336.313 271.354 336.04 272.567 336.04H276.087V337.38H272.927C271.994 337.38 271.327 337.533 270.927 337.84C270.541 338.147 270.347 338.587 270.347 339.16C270.347 339.68 270.541 340.093 270.927 340.4C271.314 340.693 271.854 340.84 272.547 340.84C273.134 340.84 273.641 340.707 274.067 340.44C274.494 340.173 274.821 339.813 275.047 339.36C275.274 338.893 275.387 338.367 275.387 337.78H276.367C276.367 339.14 276.034 340.227 275.367 341.04C274.701 341.84 273.741 342.24 272.487 342.24ZM279.602 346V332H281.102L281.202 333.84V346H279.602ZM284.582 342.24C283.742 342.24 283.002 342.02 282.362 341.58C281.735 341.14 281.248 340.527 280.902 339.74C280.555 338.94 280.382 338.027 280.382 337C280.382 335.96 280.555 335.047 280.902 334.26C281.248 333.473 281.735 332.86 282.362 332.42C283.002 331.98 283.742 331.76 284.582 331.76C285.475 331.76 286.262 331.98 286.942 332.42C287.622 332.86 288.148 333.473 288.522 334.26C288.908 335.047 289.102 335.96 289.102 337C289.102 338.027 288.908 338.94 288.522 339.74C288.148 340.527 287.622 341.14 286.942 341.58C286.262 342.02 285.475 342.24 284.582 342.24ZM284.222 340.78C284.848 340.78 285.402 340.62 285.882 340.3C286.375 339.98 286.762 339.533 287.042 338.96C287.335 338.387 287.482 337.733 287.482 337C287.482 336.267 287.342 335.613 287.062 335.04C286.795 334.467 286.415 334.02 285.922 333.7C285.428 333.38 284.868 333.22 284.242 333.22C283.655 333.22 283.128 333.38 282.662 333.7C282.208 334.02 281.848 334.467 281.582 335.04C281.328 335.613 281.202 336.267 281.202 337C281.202 337.733 281.328 338.387 281.582 338.96C281.848 339.533 282.208 339.98 282.662 340.3C283.115 340.62 283.635 340.78 284.222 340.78ZM291.418 346V332H292.918L293.018 333.84V346H291.418ZM296.398 342.24C295.558 342.24 294.818 342.02 294.178 341.58C293.551 341.14 293.065 340.527 292.718 339.74C292.371 338.94 292.198 338.027 292.198 337C292.198 335.96 292.371 335.047 292.718 334.26C293.065 333.473 293.551 332.86 294.178 332.42C294.818 331.98 295.558 331.76 296.398 331.76C297.291 331.76 298.078 331.98 298.758 332.42C299.438 332.86 299.965 333.473 300.338 334.26C300.725 335.047 300.918 335.96 300.918 337C300.918 338.027 300.725 338.94 300.338 339.74C299.965 340.527 299.438 341.14 298.758 341.58C298.078 342.02 297.291 342.24 296.398 342.24ZM296.038 340.78C296.665 340.78 297.218 340.62 297.698 340.3C298.191 339.98 298.578 339.533 298.858 338.96C299.151 338.387 299.298 337.733 299.298 337C299.298 336.267 299.158 335.613 298.878 335.04C298.611 334.467 298.231 334.02 297.738 333.7C297.245 333.38 296.685 333.22 296.058 333.22C295.471 333.22 294.945 333.38 294.478 333.7C294.025 334.02 293.665 334.467 293.398 335.04C293.145 335.613 293.018 336.267 293.018 337C293.018 337.733 293.145 338.387 293.398 338.96C293.665 339.533 294.025 339.98 294.478 340.3C294.931 340.62 295.451 340.78 296.038 340.78ZM303.134 342L303.174 328H304.774L304.734 342H303.134ZM307.668 342L307.708 332H309.308L309.268 342H307.668ZM308.488 329.68C308.221 329.68 307.988 329.58 307.788 329.38C307.588 329.18 307.488 328.947 307.488 328.68C307.488 328.4 307.588 328.167 307.788 327.98C307.988 327.78 308.221 327.68 308.488 327.68C308.768 327.68 309.001 327.78 309.188 327.98C309.388 328.167 309.488 328.4 309.488 328.68C309.488 328.947 309.388 329.18 309.188 329.38C309.001 329.58 308.768 329.68 308.488 329.68ZM316.676 342.24C315.69 342.24 314.816 342.02 314.056 341.58C313.296 341.127 312.703 340.507 312.276 339.72C311.85 338.933 311.636 338.027 311.636 337C311.636 335.973 311.843 335.067 312.256 334.28C312.683 333.493 313.276 332.88 314.036 332.44C314.796 331.987 315.663 331.76 316.636 331.76C317.596 331.76 318.456 331.98 319.216 332.42C319.976 332.86 320.556 333.48 320.956 334.28L319.496 334.94C319.23 334.407 318.843 333.993 318.336 333.7C317.83 333.393 317.25 333.24 316.596 333.24C315.943 333.24 315.363 333.4 314.856 333.72C314.363 334.04 313.97 334.487 313.676 335.06C313.396 335.62 313.256 336.267 313.256 337C313.256 337.733 313.396 338.387 313.676 338.96C313.97 339.52 314.37 339.96 314.876 340.28C315.396 340.6 315.983 340.76 316.636 340.76C317.29 340.76 317.87 340.593 318.376 340.26C318.896 339.927 319.29 339.46 319.556 338.86L321.016 339.52C320.616 340.373 320.036 341.04 319.276 341.52C318.516 342 317.65 342.24 316.676 342.24ZM329.297 342L329.137 336.72C329.11 335.933 329.01 335.287 328.837 334.78C328.663 334.26 328.397 333.873 328.037 333.62C327.677 333.353 327.197 333.22 326.597 333.22C326.023 333.22 325.523 333.333 325.097 333.56C324.683 333.787 324.343 334.14 324.077 334.62L322.657 334.04C322.91 333.573 323.223 333.173 323.597 332.84C323.97 332.493 324.41 332.227 324.917 332.04C325.423 331.853 325.99 331.76 326.617 331.76C327.537 331.76 328.303 331.94 328.917 332.3C329.53 332.66 329.983 333.2 330.277 333.92C330.583 334.627 330.737 335.513 330.737 336.58V342H329.297ZM326.257 342.24C325.07 342.24 324.143 341.973 323.477 341.44C322.823 340.893 322.497 340.14 322.497 339.18C322.497 338.167 322.83 337.393 323.497 336.86C324.177 336.313 325.123 336.04 326.337 336.04H329.857V337.38H326.697C325.763 337.38 325.097 337.533 324.697 337.84C324.31 338.147 324.117 338.587 324.117 339.16C324.117 339.68 324.31 340.093 324.697 340.4C325.083 340.693 325.623 340.84 326.317 340.84C326.903 340.84 327.41 340.707 327.837 340.44C328.263 340.173 328.59 339.813 328.817 339.36C329.043 338.893 329.157 338.367 329.157 337.78H330.137C330.137 339.14 329.803 340.227 329.137 341.04C328.47 341.84 327.51 342.24 326.257 342.24ZM337.231 342.24C336.258 342.24 335.504 341.987 334.971 341.48C334.438 340.973 334.171 340.26 334.171 339.34V328.88H335.771V339.18C335.771 339.687 335.904 340.08 336.171 340.36C336.451 340.627 336.838 340.76 337.331 340.76C337.491 340.76 337.644 340.74 337.791 340.7C337.951 340.647 338.158 340.527 338.411 340.34L339.031 341.64C338.684 341.867 338.371 342.02 338.091 342.1C337.811 342.193 337.524 342.24 337.231 342.24ZM332.431 333.42V332H338.771V333.42H332.431ZM341.066 342L341.106 332H342.706L342.666 342H341.066ZM341.886 329.68C341.62 329.68 341.386 329.58 341.186 329.38C340.986 329.18 340.886 328.947 340.886 328.68C340.886 328.4 340.986 328.167 341.186 327.98C341.386 327.78 341.62 327.68 341.886 327.68C342.166 327.68 342.4 327.78 342.586 327.98C342.786 328.167 342.886 328.4 342.886 328.68C342.886 328.947 342.786 329.18 342.586 329.38C342.4 329.58 342.166 329.68 341.886 329.68ZM350.095 342.24C349.122 342.24 348.255 342.02 347.495 341.58C346.735 341.127 346.142 340.507 345.715 339.72C345.288 338.933 345.075 338.027 345.075 337C345.075 335.973 345.282 335.067 345.695 334.28C346.122 333.493 346.715 332.88 347.475 332.44C348.235 331.987 349.095 331.76 350.055 331.76C351.042 331.76 351.908 331.987 352.655 332.44C353.415 332.88 354.002 333.493 354.415 334.28C354.842 335.067 355.055 335.973 355.055 337C355.055 338.027 354.842 338.933 354.415 339.72C354.002 340.507 353.422 341.127 352.675 341.58C351.928 342.02 351.068 342.24 350.095 342.24ZM350.095 340.72C350.748 340.72 351.322 340.567 351.815 340.26C352.308 339.94 352.695 339.5 352.975 338.94C353.255 338.38 353.395 337.733 353.395 337C353.395 336.267 353.248 335.62 352.955 335.06C352.675 334.5 352.282 334.067 351.775 333.76C351.282 333.44 350.708 333.28 350.055 333.28C349.402 333.28 348.828 333.44 348.335 333.76C347.842 334.067 347.448 334.5 347.155 335.06C346.875 335.62 346.735 336.267 346.735 337C346.735 337.733 346.875 338.38 347.155 338.94C347.448 339.5 347.848 339.94 348.355 340.26C348.862 340.567 349.442 340.72 350.095 340.72ZM357.314 342V332H358.814L358.914 333.84V342H357.314ZM364.334 342V336.88L365.934 336.28V342H364.334ZM364.334 336.88C364.334 335.893 364.221 335.14 363.994 334.62C363.767 334.1 363.454 333.747 363.054 333.56C362.654 333.36 362.201 333.26 361.694 333.26C360.814 333.26 360.127 333.573 359.634 334.2C359.154 334.813 358.914 335.687 358.914 336.82H358.134C358.134 335.767 358.287 334.86 358.594 334.1C358.901 333.34 359.341 332.76 359.914 332.36C360.501 331.96 361.207 331.76 362.034 331.76C363.247 331.76 364.201 332.133 364.894 332.88C365.601 333.627 365.947 334.76 365.934 336.28L364.334 336.88ZM371.966 342.24C371.233 342.24 370.593 342.133 370.046 341.92C369.5 341.693 369.04 341.4 368.666 341.04C368.306 340.68 368.046 340.287 367.886 339.86L369.286 339.28C369.513 339.72 369.853 340.08 370.306 340.36C370.76 340.64 371.26 340.78 371.806 340.78C372.433 340.78 372.953 340.66 373.366 340.42C373.793 340.167 374.006 339.82 374.006 339.38C374.006 338.967 373.846 338.633 373.526 338.38C373.22 338.127 372.766 337.92 372.166 337.76L371.206 337.5C370.3 337.26 369.593 336.9 369.086 336.42C368.58 335.927 368.326 335.373 368.326 334.76C368.326 333.813 368.633 333.08 369.246 332.56C369.873 332.027 370.8 331.76 372.026 331.76C372.613 331.76 373.146 331.847 373.626 332.02C374.106 332.193 374.52 332.44 374.866 332.76C375.213 333.067 375.466 333.433 375.626 333.86L374.226 334.48C374.053 334.027 373.766 333.707 373.366 333.52C372.966 333.32 372.48 333.22 371.906 333.22C371.293 333.22 370.813 333.347 370.466 333.6C370.12 333.853 369.946 334.213 369.946 334.68C369.946 334.947 370.086 335.2 370.366 335.44C370.66 335.667 371.086 335.853 371.646 336L372.646 336.26C373.3 336.42 373.846 336.66 374.286 336.98C374.726 337.287 375.06 337.64 375.286 338.04C375.513 338.44 375.626 338.867 375.626 339.32C375.626 339.92 375.466 340.44 375.146 340.88C374.826 341.32 374.393 341.66 373.846 341.9C373.3 342.127 372.673 342.24 371.966 342.24ZM378.463 342.28C378.156 342.28 377.889 342.173 377.663 341.96C377.449 341.733 377.343 341.473 377.343 341.18C377.343 340.873 377.449 340.613 377.663 340.4C377.889 340.173 378.156 340.06 378.463 340.06C378.769 340.06 379.029 340.173 379.243 340.4C379.456 340.613 379.563 340.873 379.563 341.18C379.563 341.473 379.456 341.733 379.243 341.96C379.029 342.173 378.769 342.28 378.463 342.28Z" fill="#181818"/>
<defs>
<linearGradient id="paint0_linear_2005_983" x1="570" y1="-95.5563" x2="255.943" y2="-248.963" gradientUnits="userSpaceOnUse">
<stop stop-color="#C0EF68"/>
<stop offset="1" stop-color="#A4EB22"/>
</linearGradient>
</defs>
</svg>
